Coordinates
version=1
nRows=14
nColumns=24
inDegrees=yes

Units are S.I. units (second, meters, Newtons, ...)
Angles are in degrees.

endheader
time	pelvis_tilt	pelvis_list	pelvis_rotation	pelvis_tx	pelvis_ty	pelvis_tz	hip_flexion_r	hip_adduction_r	hip_rotation_r	knee_angle_r	ankle_angle_r	subtalar_angle_r	mtp_angle_r	hip_flexion_l	hip_adduction_l	hip_rotation_l	knee_angle_l	ankle_angle_l	subtalar_angle_l	mtp_angle_l	lumbar_extension	lumbar_bending	lumbar_rotation
      2.64000000	     77.97517741	     -0.76846307	     -1.70523771	      0.54973938	      0.97498641	     -0.29873411	    -10.58078173	    -18.05921495	     -9.66042984	    -60.00636987	    -28.77413055	      0.00000000	      0.00000000	    -11.05792238	     -6.25150674	      1.19451026	    -56.43731835	    -37.70210373	      0.00000000	      0.00000000	      0.00000000	      0.00000000	      0.00000000
      2.65000000	     78.05257449	     -0.79803919	     -1.71106470	      0.54969609	      0.97503926	     -0.29871514	    -10.65926566	    -18.01578039	     -9.72350650	    -59.76388103	    -28.82937663	      0.00000000	      0.00000000	    -11.16142047	     -6.26198585	      1.05049595	    -56.76810235	    -37.82527126	      0.00000000	      0.00000000	      0.00000000	      0.00000000	      0.00000000
      2.66000000	     78.12610198	     -0.82117234	     -1.71089885	      0.54966377	      0.97508638	     -0.29868817	    -10.72919110	    -17.97835109	     -9.78380590	    -59.55658404	    -28.85993742	      0.00000000	      0.00000000	    -11.25546195	     -6.27426247	      0.91752856	    -57.08971595	    -37.92710947	      0.00000000	      0.00000000	      0.00000000	      0.00000000	      0.00000000
      2.67000000	     78.19526975	     -0.83779388	     -1.70606593	      0.54963483	      0.97512018	     -0.29867447	    -10.79705355	    -17.94553222	     -9.83789056	    -59.38751263	    -28.87088409	      0.00000000	      0.00000000	    -11.34125511	     -6.28851445	      0.79876038	    -57.39782744	    -38.00741240	      0.00000000	      0.00000000	      0.00000000	      0.00000000	      0.00000000
      2.68000000	     78.25823546	     -0.84894671	     -1.69856544	      0.54959717	      0.97513648	     -0.29868480	    -10.86586387	    -17.91721021	     -9.88219144	    -59.25867492	    -28.86896210	      0.00000000	      0.00000000	    -11.41691237	     -6.30504321	      0.69523040	    -57.68888704	    -38.06794394	      0.00000000	      0.00000000	      0.00000000	      0.00000000	      0.00000000
      2.69000000	     78.31396514	     -0.85622025	     -1.68939666	      0.54956131	      0.97515484	     -0.29869999	    -10.93235869	    -17.89475968	     -9.91451465	    -59.16881859	    -28.86065874	      0.00000000	      0.00000000	    -11.47941502	     -6.32383038	      0.60585431	    -57.96096047	    -38.11192585	      0.00000000	      0.00000000	      0.00000000	      0.00000000	      0.00000000
      2.70000000	     78.36067899	     -0.86049464	     -1.67914620	      0.54953791	      0.97518268	     -0.29870845	    -10.98929059	    -17.87960846	     -9.93435857	    -59.11451527	    -28.85115580	      0.00000000	      0.00000000	    -11.52630557	     -6.34455645	      0.52859767	    -58.21359598	    -38.14330546	      0.00000000	      0.00000000	      0.00000000	      0.00000000	      0.00000000
      2.71000000	     78.39476296	     -0.86178488	     -1.66873754	      0.54951812	      0.97520242	     -0.29872012	    -11.02964064	    -17.87200703	     -9.94206869	    -59.09251622	    -28.84380419	      0.00000000	      0.00000000	    -11.55578743	     -6.36649524	      0.46192552	    -58.44669877	    -38.16578485	      0.00000000	      0.00000000	      0.00000000	      0.00000000	      0.00000000
      2.72000000	     78.41271839	     -0.86000435	     -1.65919689	      0.54949693	      0.97520469	     -0.29874265	    -11.04876213	    -17.87104359	     -9.93780557	    -59.10092080	    -28.83990365	      0.00000000	      0.00000000	    -11.56607621	     -6.38863989	      0.40590838	    -58.65931783	    -38.18192014	      0.00000000	      0.00000000	      0.00000000	      0.00000000	      0.00000000
      2.73000000	     78.41269249	     -0.85534948	     -1.65136322	      0.54948499	      0.97519600	     -0.29877253	    -11.04515595	    -17.87521390	     -9.92115830	    -59.13943406	    -28.83884382	      0.00000000	      0.00000000	    -11.55562249	     -6.41031649	      0.36255869	    -58.84929560	    -38.19271733	      0.00000000	      0.00000000	      0.00000000	      0.00000000	      0.00000000
      2.74000000	     78.39440835	     -0.84838361	     -1.64574967	      0.54949384	      0.97518148	     -0.29879991	    -11.02066777	    -17.88305903	     -9.89153331	    -59.20906726	    -28.83856341	      0.00000000	      0.00000000	    -11.52395045	     -6.43169311	      0.33511025	    -59.01371688	    -38.19782908	      0.00000000	      0.00000000	      0.00000000	      0.00000000	      0.00000000
      2.75000000	     78.35887906	     -0.83996739	     -1.64248408	      0.54951979	      0.97515956	     -0.29881435	    -10.97966525	    -17.89357493	     -9.84910440	    -59.31107487	    -28.83620777	      0.00000000	      0.00000000	    -11.47225329	     -6.45372009	      0.32654332	    -59.14977208	    -38.19617645	      0.00000000	      0.00000000	      0.00000000	      0.00000000	      0.00000000
      2.76000000	     78.30849764	     -0.83088884	     -1.64118142	      0.54954906	      0.97512938	     -0.29881573	    -10.92701653	    -17.90619198	     -9.79583614	    -59.44532587	    -28.82892017	      0.00000000	      0.00000000	    -11.40376369	     -6.47748636	      0.33806358	    -59.25584539	    -38.18671357	      0.00000000	      0.00000000	      0.00000000	      0.00000000	      0.00000000
      2.77000000	     78.24708961	     -0.82161900	     -1.64057117	      0.54958039	      0.97509607	     -0.29881660	    -10.86596023	    -17.92067145	     -9.73574055	    -59.60907806	    -28.81463432	      0.00000000	      0.00000000	    -11.32369316	     -6.50334161	      0.36832856	    -59.33223618	    -38.16894943	      0.00000000	      0.00000000	      0.00000000	      0.00000000	      0.00000000
